<svg width="301" height="300" viewBox="0 0 301 300" fill="none" xmlns="http://www.w3.org/2000/svg">
<path d="M191.956 138.759C182.36 102.946 194.519 81.8612 230.347 72.2608C266.178 62.6599 287.251 74.8404 296.847 110.653C306.442 146.466 294.283 167.55 258.452 177.151C222.624 186.751 201.553 174.571 191.956 138.759Z" fill="#729508"/>
<path d="M3.15419 189.347C-6.44168 153.534 5.71752 132.45 41.5487 122.849C42.3685 122.629 43.1806 122.421 43.985 122.224C55.1873 119.485 65.8691 113.387 71.3302 103.229C76.3585 93.8764 76.0715 82.6717 73.0594 72.4891C72.7849 71.5611 72.5188 70.616 72.261 69.6539C62.66 33.8226 74.8405 12.7502 110.654 3.15419C146.466 -6.44168 167.55 5.71751 177.151 41.5487C186.751 77.3768 174.571 98.4482 138.759 108.044C138.455 108.126 138.153 108.205 137.851 108.284C126.316 111.276 115.352 117.662 109.709 128.158C104.52 137.81 104.716 149.355 107.678 159.905C107.802 160.347 107.924 160.792 108.044 161.241C108.09 161.412 108.135 161.582 108.18 161.752C111.239 173.375 117.696 184.414 128.282 190.105C138.013 195.337 149.647 195.163 160.294 192.214C160.608 192.127 160.924 192.041 161.241 191.956C197.054 182.36 218.139 194.518 227.739 230.346C237.34 266.178 225.16 287.25 189.347 296.846C153.534 306.442 132.45 294.282 122.849 258.451C122.594 257.499 122.354 256.558 122.13 255.627C119.453 244.51 113.425 233.9 103.354 228.485C94.0763 223.496 82.9566 223.804 72.8664 226.828C71.8176 227.143 70.7467 227.446 69.6539 227.739C33.8226 237.34 12.7502 225.16 3.15419 189.347Z" fill="#729508"/>
</svg>
