<svg width="25" height="25" viewBox="0 0 25 25" fill="none" xmlns="http://www.w3.org/2000/svg">
<path d="M24.9665 12.5001H12.4833H11.8809H11.8474V12.4666H0V12.5001C0 13.74 0.100401 14.9129 0.267737 15.9518H24.7323C24.8661 14.9129 24.9665 13.74 24.9665 12.5001Z" fill="#F0F0F0"/>
<path d="M22.5903 21.2132C22.9919 20.677 23.3601 20.1073 23.6613 19.437H1.30518C1.57291 20.0402 1.90759 20.5764 2.27572 21.0791C2.77773 21.6823 3.31321 22.2185 3.91562 22.7212C4.01602 22.7882 4.11642 22.8552 4.18336 22.9223H20.7161C20.85 22.8217 20.9839 22.7212 21.1178 22.6207C21.6532 22.185 22.1552 21.7158 22.5903 21.2132Z" fill="#F0F0F0"/>
<path d="M22.7579 4.0215C22.7244 3.95448 22.6575 3.88745 22.624 3.85394C22.189 3.35126 21.7204 2.88209 21.2184 2.44643C21.118 2.37941 21.0511 2.31239 20.9507 2.24536C21.5866 2.74804 22.2224 3.35126 22.7579 4.0215Z" fill="#F0F0F0"/>
<path d="M12.4834 9.01479H24.6989C24.4981 7.70782 24.13 6.5349 23.6614 5.52954H12.4834V9.01479Z" fill="#F0F0F0"/>
<path d="M20.7163 2.04423C18.7083 0.670241 15.9975 0 12.4834 0V2.04423H20.7163Z" fill="#F0F0F0"/>
<path d="M12.4834 12.4664L24.9667 12.4999C24.9667 11.2264 24.8663 10.087 24.6989 9.01465H12.4834V12.4664Z" fill="#D80027"/>
<path d="M12.4834 5.52969H23.6614C23.3937 4.9935 23.0925 4.49081 22.7578 4.02165C22.2224 3.3514 21.6199 2.74819 20.9506 2.21199C20.8837 2.14497 20.7833 2.11146 20.7163 2.04443H12.4834V5.52969Z" fill="#D80027"/>
<path d="M12.4832 25.0001C15.9973 25.0001 18.7416 24.3299 20.7496 22.9224H4.2168C6.22483 24.3299 8.96914 25.0001 12.4832 25.0001Z" fill="#D80027"/>
<path d="M24.6986 15.9517H0.267578C0.468381 17.2586 0.83652 18.4316 1.30506 19.4369H23.6611C24.1632 18.4316 24.4978 17.2586 24.6986 15.9517Z" fill="#D80027"/>
<path d="M3.91577 2.27881C3.74844 2.41286 3.5811 2.51339 3.44723 2.64744C3.17949 2.91554 2.91176 3.18363 2.64402 3.45173C2.51015 3.58578 2.37628 3.75334 2.27588 3.9209C2.77789 3.31768 3.31336 2.78149 3.91577 2.27881Z" fill="#0052B4"/>
<path d="M3.91566 2.27906C3.31325 2.78174 2.77778 3.31794 2.27577 3.92115C0.736278 5.93188 0 8.81391 0 12.5002H11.8474H12.4833V9.01499V5.52973V2.04448V0.000244141C8.7684 0.000244141 5.95716 0.737509 3.91566 2.27906ZM6.7269 11.3273C4.4846 11.3273 2.67738 9.51767 2.67738 7.27236C2.67738 5.02705 4.4846 3.2174 6.7269 3.2174C7.83132 3.2174 8.83534 3.68657 9.57162 4.39032C9.10308 4.12223 8.5676 3.98818 7.99866 3.98818C6.19143 3.98818 4.71887 5.46271 4.71887 7.27236C4.71887 9.08201 6.19143 10.5565 7.99866 10.5565C8.5676 10.5565 9.10308 10.4225 9.57162 10.1544C8.83534 10.8917 7.83132 11.3273 6.7269 11.3273ZM9.93976 8.24421V9.6182L8.8688 8.7804L7.79786 9.6182V8.24421L6.45917 7.9426L7.53012 7.1048L6.92771 5.89837L8.23293 6.19997L8.93574 4.96003L9.50468 6.19997L10.8099 5.89837L10.2075 7.1048L11.2784 7.9426L9.93976 8.24421Z" fill="#0052B4"/>
<path d="M4.71874 7.27224C4.71874 5.46259 6.1913 3.98806 7.99853 3.98806C8.56747 3.98806 9.10295 4.12211 9.57149 4.39021C8.83521 3.68645 7.83119 3.21729 6.72678 3.21729C4.48447 3.21729 2.67725 5.02694 2.67725 7.27224C2.67725 9.51755 4.48447 11.3272 6.72678 11.3272C7.83119 11.3272 8.83521 10.8915 9.57149 10.1543C9.10295 10.4224 8.56747 10.5564 7.99853 10.5564C6.1913 10.5564 4.71874 9.0819 4.71874 7.27224Z" fill="#FFDA44"/>
<path d="M10.2078 7.10449L10.8102 5.89805L9.50499 6.19966L8.93605 4.95972L8.23323 6.19966L6.92801 5.89805L7.53042 7.10449L6.45947 7.94229L7.79816 8.2439V9.61789L8.86911 8.78009L9.94006 9.61789V8.2439L11.2787 7.94229L10.2078 7.10449Z" fill="#FFDA44"/>
<path d="M12.5 0.500244C16.1923 0.500288 18.9333 1.25527 20.8486 2.74341C21.3515 3.17341 21.8209 3.64195 22.252 4.14478C23.7439 6.06037 24.5 8.80603 24.5 12.5002C24.5 16.1889 23.7471 18.93 22.2607 20.8459C21.8289 21.3502 21.3583 21.8199 20.8545 22.2522C18.9388 23.7431 16.1967 24.5002 12.5 24.5002C8.80307 24.5002 6.05916 23.7434 4.14355 22.2512C3.64154 21.8213 3.1735 21.3524 2.74316 20.8499C1.25449 18.9345 0.5 16.1931 0.5 12.5002C0.500044 8.80718 1.25488 6.0637 2.74512 4.14771C3.17402 3.64728 3.64053 3.17952 4.14062 2.75024C6.05631 1.25744 8.80249 0.500244 12.5 0.500244Z" stroke="white"/>
</svg>
