<svg width="25" height="25" viewBox="0 0 25 25" fill="none" xmlns="http://www.w3.org/2000/svg">
<path d="M24.9665 12.5002C24.9665 10.7622 24.7992 9.22481 24.4645 7.85449H0.502008C0.167336 9.22481 0 10.7622 0 12.5002C0 14.2382 0.167336 15.7422 0.502008 17.1125H24.4645C24.7992 15.7422 24.9665 14.2048 24.9665 12.5002Z" fill="#FFDA44"/>
<path d="M24.4645 7.8211C24.0629 6.14998 23.3935 4.77966 22.4564 3.64329C22.1218 3.27565 21.7871 2.908 21.419 2.57377C19.3775 0.835806 16.4323 0.000244141 12.4832 0.000244141C8.53408 0.000244141 5.58897 0.835806 3.54747 2.57377C3.17933 2.908 2.81119 3.27565 2.50999 3.64329C1.5729 4.77966 0.90356 6.14998 0.501953 7.8211L10.5086 7.85453L24.4645 7.8211Z" fill="#D80027"/>
<path d="M24.4645 7.82102H11.9143L0.501953 7.7876C0.501953 7.7876 0.501953 7.7876 0.501953 7.82102H24.4645C24.4645 7.85444 24.4645 7.85444 24.4645 7.82102Z" fill="#D80027"/>
<path d="M22.9585 20.6556C23.6278 19.6529 24.1298 18.5165 24.4645 17.1462L11.3119 17.1128L0.501953 17.1796C0.937027 18.8842 1.60637 20.2879 2.57692 21.4243C2.91159 21.7919 3.24626 22.1262 3.58094 22.427C5.62244 24.1315 8.56755 24.9671 12.4832 24.9671C16.0307 24.9671 18.775 24.2652 20.7831 22.8615C21.5863 22.2264 22.3226 21.4577 22.9585 20.6556Z" fill="#D80027"/>
<path d="M24.4645 17.1462L0.501953 17.1128C0.501953 17.1462 0.501953 17.1462 0.501953 17.1796L13.1191 17.1128L24.4645 17.1462Z" fill="#D80027"/>
<path d="M12.5005 0.5C16.1928 0.500044 18.9338 1.25503 20.8491 2.74316C21.352 3.17316 21.8214 3.64171 22.2524 4.14453C23.7444 6.06013 24.5004 8.80578 24.5005 12.5C24.5005 16.1887 23.7476 18.9297 22.2612 20.8457C21.8294 21.3499 21.3588 21.8196 20.855 22.252C18.9392 23.7429 16.1972 24.5 12.5005 24.5C8.80356 24.5 6.05965 23.7432 4.14404 22.251C3.64203 21.821 3.17399 21.3522 2.74365 20.8496C1.25498 18.9342 0.500488 16.1928 0.500488 12.5C0.500533 8.80693 1.25537 6.06345 2.74561 4.14746C3.17451 3.64704 3.64102 3.17927 4.14111 2.75C6.0568 1.25719 8.80298 0.5 12.5005 0.5Z" stroke="white"/>
</svg>
