<svg width="25" height="25" viewBox="0 0 25 25" fill="none" xmlns="http://www.w3.org/2000/svg">
<path d="M2.27882 3.92091C0.737265 5.96515 0 8.78016 0 12.5H25C25 8.74665 24.2292 5.86461 22.6542 3.85389C22.2185 3.35121 21.7493 2.88204 21.2466 2.44638C19.2024 0.804289 16.3204 0 12.5 0C8.78016 0 5.96515 0.737265 3.92091 2.27882C3.31769 2.7815 2.7815 3.31769 2.27882 3.92091Z" fill="#F0F0F0"/>
<path d="M2.27882 21.0791C2.7815 21.6823 3.31769 22.2185 3.92091 22.7212C5.96515 24.2627 8.78016 25 12.5 25C16.2869 25 19.1354 24.2292 21.1796 22.6206C21.6823 22.185 22.1515 21.7158 22.5871 21.2131C24.1957 19.1689 24.9665 16.2869 24.9665 12.5H0C0 16.2198 0.737265 19.0349 2.27882 21.0791Z" fill="#D80027"/>
<path d="M12.5 0.5C16.1923 0.500044 18.9333 1.25503 20.8486 2.74316C21.3515 3.17316 21.8209 3.64171 22.252 4.14453C23.7439 6.06013 24.5 8.80578 24.5 12.5C24.5 16.1887 23.7471 18.9297 22.2607 20.8457C21.8289 21.3499 21.3583 21.8196 20.8545 22.252C18.9388 23.7429 16.1967 24.5 12.5 24.5C8.80307 24.5 6.05916 23.7432 4.14355 22.251C3.64154 21.821 3.1735 21.3522 2.74316 20.8496C1.25449 18.9342 0.5 16.1928 0.5 12.5C0.500044 8.80693 1.25488 6.06345 2.74512 4.14746C3.17402 3.64704 3.64053 3.17927 4.14062 2.75C6.05631 1.25719 8.80249 0.5 12.5 0.5Z" stroke="white"/>
</svg>
