<svg width="25" height="25" viewBox="0 0 25 25" fill="none" xmlns="http://www.w3.org/2000/svg">
<path d="M15.1941 11.3607L15.5622 10.6904H14.7925L15.1941 11.3607Z" fill="#F0F0F0"/>
<path d="M2.27588 21.0457C2.30935 21.1127 2.34281 21.1462 2.37628 21.1797C2.34281 21.1462 2.30935 21.0792 2.27588 21.0457Z" fill="#F0F0F0"/>
<path d="M3.91562 22.7212C3.94909 22.7547 3.98256 22.7882 4.04949 22.8217C3.81522 22.6207 3.58095 22.4196 3.34668 22.2185C3.51402 22.3861 3.71482 22.5536 3.91562 22.7212Z" fill="#F0F0F0"/>
<path d="M3.24625 22.1179C3.14585 22.0174 3.04545 21.9504 2.97852 21.8499C3.04545 21.9169 3.14585 22.0174 3.24625 22.1179Z" fill="#F0F0F0"/>
<path d="M24.9665 12.5C24.9665 9.68504 24.5315 7.3727 23.6613 5.52954H1.30522C0.435073 7.3727 0 9.68504 0 12.5C0 15.2816 0.435073 17.5939 1.30522 19.437H23.6613C24.5315 17.5939 24.9665 15.2816 24.9665 12.5ZM14.1566 15.4156L12.4833 18.3311L10.8099 15.4156H7.46319L9.13655 12.5L7.46319 9.5845H10.8099L12.4833 6.66895L14.1566 9.5845H17.5033L15.83 12.5L17.5033 15.4156H14.1566Z" fill="#F0F0F0"/>
<path d="M14.7925 14.2762H15.5622L15.1606 13.606L14.7925 14.2762Z" fill="#F0F0F0"/>
<path d="M12.4834 16.0523L12.885 15.3821H12.1152L12.4834 16.0523Z" fill="#F0F0F0"/>
<path d="M12.4831 8.91431L12.0815 9.58455H12.8513L12.4831 8.91431Z" fill="#F0F0F0"/>
<path d="M9.4043 14.2762H10.1406L9.77244 13.606L9.4043 14.2762Z" fill="#F0F0F0"/>
<path d="M22.7574 3.98799C22.7239 3.92096 22.6905 3.88745 22.657 3.82043C22.2219 3.31775 21.7534 2.84858 21.2514 2.41292C21.1844 2.3459 21.084 2.27887 21.0171 2.24536C21.6195 2.78155 22.2219 3.35126 22.7574 3.98799Z" fill="#F0F0F0"/>
<path d="M12.4834 0C8.96936 0 6.25852 0.670241 4.25049 2.04423H20.7164C18.7083 0.670241 15.9975 0 12.4834 0Z" fill="#F0F0F0"/>
<path d="M12.4832 24.9999C15.9973 24.9999 18.7416 24.3296 20.7496 22.9221H4.2168C6.22483 24.3296 8.96914 24.9999 12.4832 24.9999Z" fill="#F0F0F0"/>
<path d="M11.4457 10.7239L10.4082 12.5L11.4457 14.2762H13.4872L14.5247 12.5L13.4872 10.7239H11.4457Z" fill="#F0F0F0"/>
<path d="M22.5906 21.2131C22.691 21.1125 22.7579 20.9785 22.8248 20.8779C22.2559 21.5817 21.62 22.2184 20.9507 22.7881C21.0176 22.7211 21.0846 22.6876 21.185 22.6206C21.6535 22.1849 22.1555 21.7157 22.5906 21.2131Z" fill="#F0F0F0"/>
<path d="M9.8059 11.3607L10.174 10.6904H9.4043L9.8059 11.3607Z" fill="#F0F0F0"/>
<path d="M17.5031 9.5845H14.1563L12.483 6.66895L10.8096 9.5845H7.46289L9.13625 12.5L7.46289 15.4156H10.8096L12.483 18.3311L14.1563 15.4156H17.5031L15.8297 12.5L17.5031 9.5845ZM12.483 8.91425L12.8511 9.5845H12.0814L12.483 8.91425ZM9.40399 14.2762L9.77213 13.6059L10.1403 14.2762H9.40399ZM9.8056 11.3606L9.40399 10.6904H10.1737L9.8056 11.3606ZM12.483 16.0523L12.1148 15.3821H12.8846L12.483 16.0523ZM13.487 14.2762H11.4455L10.408 12.5L11.4455 10.7239H13.487L14.5245 12.5L13.487 14.2762ZM14.7922 14.2762L15.1603 13.6059L15.562 14.2762H14.7922ZM15.1938 11.3606L14.7922 10.6904H15.562L15.1938 11.3606Z" fill="#0052B4"/>
<path d="M3.91555 2.27881C3.64781 2.47988 3.38007 2.71447 3.1458 2.94905C2.97847 3.11661 2.81113 3.28417 2.64379 3.45173C2.50992 3.61929 2.37606 3.75334 2.24219 3.9209C2.77766 3.31768 3.31314 2.78149 3.91555 2.27881Z" fill="#0052B4"/>
<path d="M22.7577 3.98795C22.2222 3.35122 21.6532 2.74801 20.9839 2.21181C20.8835 2.14479 20.8166 2.07777 20.7162 2.01074H4.25029C4.14989 2.07777 4.01602 2.1783 3.91562 2.24533C3.31321 2.74801 2.77773 3.2842 2.27573 3.88742C1.90759 4.3901 1.57291 4.92629 1.30518 5.49599H23.6613C23.3935 4.99331 23.0923 4.45712 22.7577 3.98795Z" fill="#0052B4"/>
<path d="M2.37598 21.1797C2.44291 21.2467 2.50985 21.3137 2.57678 21.4143C2.47638 21.3137 2.44291 21.2467 2.37598 21.1797Z" fill="#0052B4"/>
<path d="M3.24609 22.1179C3.27956 22.1514 3.31303 22.1849 3.3465 22.2185C3.31303 22.1514 3.27956 22.1179 3.24609 22.1179Z" fill="#0052B4"/>
<path d="M2.97841 21.8164C2.91148 21.7493 2.84454 21.6488 2.74414 21.5818C2.81108 21.6823 2.87801 21.7493 2.97841 21.8164Z" fill="#0052B4"/>
<path d="M22.8246 20.878C23.1258 20.4424 23.427 19.9732 23.6613 19.437H1.30518C1.57291 20.0067 1.90759 20.5429 2.27573 21.0456C2.30919 21.0791 2.34266 21.1461 2.37613 21.1796C2.44306 21.2467 2.51 21.3137 2.57693 21.4142C2.64387 21.4812 2.7108 21.5483 2.74427 21.6153C2.8112 21.6823 2.87813 21.7829 2.97854 21.8499C3.07894 21.9504 3.14587 22.0174 3.24627 22.118C3.27974 22.1515 3.31321 22.185 3.34668 22.2185C3.58095 22.4196 3.81522 22.6542 4.04949 22.8217C4.11642 22.8552 4.14989 22.8888 4.21682 22.9223H20.7496C20.8166 22.8888 20.8835 22.8217 20.9504 22.7882C21.6198 22.2185 22.2556 21.5818 22.8246 20.878Z" fill="#0052B4"/>
</svg>
